
nColumns=19
nRows=39
DataType=double
version=3
OpenSimVersion=4.4-2022-10-11-798caa840
endheader
time	ground_force_calcn_r_vx	ground_force_calcn_r_vy	ground_force_calcn_r_vz	ground_force_calcn_r_px	ground_force_calcn_r_py	ground_force_calcn_r_pz	ground_force_calcn_r_mx	ground_force_calcn_r_my	ground_force_calcn_r_mz	ground_force_calcn_l_vx	ground_force_calcn_l_vy	ground_force_calcn_l_vz	ground_force_calcn_l_px	ground_force_calcn_l_py	ground_force_calcn_l_pz	ground_force_calcn_l_mx	ground_force_calcn_l_my	ground_force_calcn_l_mz
0	-115.404	612.252	-1.66889	0.270335	0	-0.18267	0.148965	-0.790304	0.00215423	0	0	0	0	0	0	0	0	0
0.01	-118.535	628.348	-4.94051	0.273374	0	-0.181684	0.118602	-0.628702	0.00494329	0	0	0	0	0	0	0	0	0
0.02	-121.387	645.367	-8.18778	0.277058	0	-0.180519	0.0817596	-0.434685	0.00551485	0	0	0	0	0	0	0	0	0
0.03	-123.744	662.7910000000001	-11.274	0.280758	0	-0.179386	0.0406869	-0.217925	0.00370688	0	0	0	0	0	0	0	0	0
0.04	-125.441	680.164	-14.0901	0.28439	0	-0.178302	-0.00152952	0.00829335	-0.000171803	0	0	0	0	0	0	0	0	0
0.05	-126.348	697.044	-16.5411	0.287894	0	-0.177275	-0.0418494	0.230877	-0.00547881	0	0	0	0	0	0	0	0	0
0.06	-126.385	712.953	-18.5616	0.291237	0	-0.176303	-0.0775541	0.437494	-0.0113901	0	0	0	0	0	0	0	0	0
0.07000000000000001	-125.532	727.381	-20.1365	0.294419	0	-0.175373	-0.10648	0.616988	-0.0170804	0	0	0	0	0	0	0	0	0
0.08	-123.833	739.833	-21.2957	0.29746	0	-0.174464	-0.127427	0.761304	-0.0219138	0	0	0	0	0	0	0	0	0
0.09	-121.378	749.89	-22.0976	0.3004	0	-0.173555	-0.140188	0.866104	-0.0255222	0	0	0	0	0	0	0	0	0
0.1	-118.289	757.251	-22.6138	0.303287	0	-0.172624	-0.145308	0.930216	-0.0277791	0	0	0	0	0	0	0	0	0
0.11	-114.696	761.768	-22.9176	0.30617	0	-0.171653	-0.143813	0.955153	-0.0287355	0	0	0	0	0	0	0	0	0
0.12	-110.723	763.444	-23.0751	0.309094	0	-0.170624	-0.136975	0.944453	-0.0285462	0	0	0	0	0	0	0	0	0
0.13	-106.489	762.402	-23.1406	0.312098	0	-0.169526	-0.126055	0.902488	-0.0273925	0	0	0	0	0	0	0	0	0
0.14	-102.1	758.862	-23.1501	0.315211	0	-0.168351	-0.112114	0.83329	-0.0254207	0	0	0	0	0	0	0	0	0
0.15	-97.65300000000001	753.11	-23.1173	0.318455	0	-0.167096	-0.0959482	0.739963	-0.0227137	0	0	0	0	0	0	0	0	0
0.16	-93.2287	745.4930000000001	-23.0327	0.321835	0	-0.165766	-0.0781007	0.624524	-0.0192952	0	0	0	0	0	0	0	0	0
0.17	-88.8843	736.423	-22.8712	0.325343	0	-0.16437	-0.0589063	0.488049	-0.0151575	0	0	0	0	0	0	0	0	0
0.18	-84.6566	726.377	-22.6057	0.328957	0	-0.162926	-0.0385997	0.331196	-0.0103072	0	0	0	0	0	0	0	0	0
0.19	-80.5684	715.867	-22.2189	0.332644	0	-0.161454	-0.0174302	0.154871	-0.00480686	0	0	0	0	0	0	0	0	0
0.2	-76.6352	705.395	-21.7115	0.336361	0	-0.159975	0.00424858	-0.0391064	0.00120366	0	0	0	0	0	0	0	0	0
0.21	-72.86879999999999	695.399	-21.1052	0.340063	0	-0.158511	0.0259549	-0.247692	0.0075174	0	0	0	0	0	0	0	0	0
0.22	-69.2749	686.231	-20.4395	0.3437	0	-0.157082	0.0471206	-0.466773	0.0139029	0	0	0	0	0	0	0	0	0
0.23	-65.8481	678.149	-19.7606	0.347224	0	-0.155709	0.0671707	-0.69177	0.0201575	0	0	0	0	0	0	0	0	0
0.24	-62.5706	671.325	-19.1107	0.350588	0	-0.154406	0.085602	-0.91843	0.0261451	0	0	0	0	0	0	0	0	0
0.25	-59.4127	665.8579999999999	-18.5185	0.353747	0	-0.153189	0.102036	-1.14356	0.0318041	0	0	0	0	0	0	0	0	0
0.26	-56.3352	661.788	-17.9966	0.356668	0	-0.15207	0.116232	-1.36541	0.0371309	0	0	0	0	0	0	0	0	0
0.27	-53.2961	659.102	-17.544	0.359326	0	-0.151059	0.12805	-1.58357	0.0421514	0	0	0	0	0	0	0	0	0
0.28	-50.2562	657.75	-17.1523	0.361709	0	-0.150159	0.13742	-1.79855	0.0469012	0	0	0	0	0	0	0	0	0
0.29	-47.1818	657.652	-16.8147	0.363819	0	-0.149376	0.144288	-2.01119	0.0514216	0	0	0	0	0	0	0	0	0
0.3	-44.0457	658.701	-16.5311	0.36567	0	-0.148704	0.148592	-2.22219	0.0557693	0	0	0	0	0	0	0	0	0
0.31	-40.8271	660.776	-16.3114	0.367287	0	-0.148141	0.150257	-2.43188	0.0600315	0	0	0	0	0	0	0	0	0
0.32	-37.5115	663.749	-16.1738	0.368701	0	-0.147676	0.149211	-2.64021	0.0643352	0	0	0	0	0	0	0	0	0
0.33	-34.089	667.496	-16.1415	0.369951	0	-0.147297	0.145384	-2.84676	0.06884079999999999	0	0	0	0	0	0	0	0	0
0.34	-30.5537	671.908	-16.2375	0.371079	0	-0.146993	0.138733	-3.05088	0.0737281	0	0	0	0	0	0	0	0	0
0.35	-26.9023	676.899	-16.481	0.372123	0	-0.146753	0.129243	-3.25193	0.0791771	0	0	0	0	0	0	0	0	0
0.36	-23.1321	682.405	-16.8847	0.373124	0	-0.146567	0.116928	-3.44942	0.08534849999999999	0	0	0	0	0	0	0	0	0
0.37	-19.24	688.389	-17.4543	0.374117	0	-0.146425	0.101816	-3.64287	0.0923658	0	0	0	0	0	0	0	0	0
0.38	-15.2211	694.833	-18.1871	0.375132	0	-0.146322	0.08393689999999999	-3.83165	0.100292	0	0	0	0	0	0	0	0	0
